<svg width="262" height="80" viewBox="0 0 262 80" fill="none" xmlns="http://www.w3.org/2000/svg">
<path d="M46.6344 58.811L45.6436 56.7909L45.6436 56.7909L46.6344 58.811ZM45.8423 58.811L44.8515 60.8311L44.8515 60.8311L45.8423 58.811ZM65.1274 31.5C65.1274 38.8682 61.1397 44.7909 56.542 49.1678C51.9545 53.5348 46.9975 56.1268 45.6436 56.7909L47.6253 60.8311C49.1711 60.0728 54.5856 57.243 59.6447 52.4271C64.6935 47.6208 69.6274 40.5993 69.6274 31.5H65.1274ZM46.2384 12.3611C56.6456 12.3611 65.1274 20.9049 65.1274 31.5H69.6274C69.6274 18.4696 59.1806 7.86112 46.2384 7.86112V12.3611ZM27.3494 31.5C27.3494 20.9049 35.8311 12.3611 46.2384 12.3611V7.86112C33.2961 7.86112 22.8494 18.4696 22.8494 31.5H27.3494ZM46.8332 56.7909C45.4793 56.1268 40.5223 53.5348 35.9348 49.1678C31.3371 44.7909 27.3494 38.8682 27.3494 31.5H22.8494C22.8494 40.5993 27.7833 47.6208 32.8321 52.4271C37.8911 57.243 43.3057 60.0728 44.8515 60.8311L46.8332 56.7909ZM45.6436 56.7909C45.8029 56.7127 46.0069 56.6561 46.2384 56.6561C46.4699 56.6561 46.6739 56.7128 46.8332 56.7909L44.8515 60.8311C45.735 61.2644 46.7418 61.2644 47.6253 60.8311L45.6436 56.7909ZM53.048 31.5C53.048 35.345 49.9744 38.4167 46.2384 38.4167V42.9167C52.5094 42.9167 57.548 37.7802 57.548 31.5H53.048ZM46.2384 24.5833C49.9744 24.5833 53.048 27.655 53.048 31.5H57.548C57.548 25.2197 52.5094 20.0833 46.2384 20.0833V24.5833ZM39.4288 31.5C39.4288 27.655 42.5024 24.5833 46.2384 24.5833V20.0833C39.9674 20.0833 34.9288 25.2197 34.9288 31.5H39.4288ZM46.2384 38.4167C42.5024 38.4167 39.4288 35.345 39.4288 31.5H34.9288C34.9288 37.7802 39.9674 42.9167 46.2384 42.9167V38.4167Z" fill="white"/>
<path d="M69.7758 57.4722C72.1612 58.8657 73.4171 60.4465 73.4171 62.0556C73.4171 63.6646 72.1612 65.2454 69.7758 66.6389C67.3904 68.0324 63.9594 69.1896 59.8277 69.9941C55.696 70.7987 51.0092 71.2222 46.2383 71.2222C41.4674 71.2222 36.7806 70.7987 32.6489 69.9941C28.5173 69.1896 25.0863 68.0324 22.7008 66.6389C20.3154 65.2454 19.0596 63.6646 19.0596 62.0556C19.0596 60.4465 20.3154 58.8657 22.7008 57.4722" stroke="#FFD9A3" stroke-width="4.5" stroke-linecap="round"/>
<path d="M101.305 39.86C102.769 40.292 103.897 41.048 104.689 42.128C105.505 43.184 105.913 44.492 105.913 46.052C105.913 48.188 105.121 49.88 103.537 51.128C101.977 52.376 99.8166 53 97.0566 53H87.6246C86.7846 53 86.1366 52.772 85.6806 52.316C85.2246 51.86 84.9966 51.212 84.9966 50.372V30.248C84.9966 29.408 85.2246 28.76 85.6806 28.304C86.1366 27.848 86.7846 27.62 87.6246 27.62H96.6966C99.3366 27.62 101.425 28.208 102.961 29.384C104.521 30.56 105.301 32.168 105.301 34.208C105.301 35.528 104.941 36.692 104.221 37.7C103.525 38.684 102.553 39.404 101.305 39.86ZM90.4686 37.952H95.7606C97.2006 37.952 98.2566 37.712 98.9286 37.232C99.6246 36.728 99.9726 35.972 99.9726 34.964C99.9726 33.908 99.6246 33.14 98.9286 32.66C98.2566 32.156 97.2006 31.904 95.7606 31.904H90.4686V37.952ZM96.4086 48.716C97.8966 48.716 98.9766 48.464 99.6486 47.96C100.321 47.456 100.657 46.64 100.657 45.512C100.657 44.384 100.321 43.556 99.6486 43.028C98.9766 42.5 97.8966 42.236 96.4086 42.236H90.4686V48.716H96.4086ZM124.649 47.744C125.129 47.744 125.513 47.936 125.801 48.32C126.113 48.704 126.269 49.196 126.269 49.796C126.269 50.204 126.149 50.588 125.909 50.948C125.669 51.284 125.333 51.572 124.901 51.812C124.085 52.244 123.137 52.604 122.057 52.892C120.977 53.156 119.981 53.288 119.069 53.288C117.149 53.288 115.469 52.916 114.029 52.172C112.613 51.428 111.521 50.372 110.753 49.004C109.985 47.612 109.601 45.98 109.601 44.108C109.601 42.308 109.973 40.712 110.717 39.32C111.461 37.928 112.493 36.848 113.813 36.08C115.133 35.288 116.633 34.892 118.313 34.892C119.921 34.892 121.325 35.252 122.525 35.972C123.749 36.668 124.697 37.676 125.369 38.996C126.041 40.292 126.377 41.816 126.377 43.568C126.377 44.096 126.245 44.504 125.981 44.792C125.741 45.056 125.393 45.188 124.937 45.188H114.857C115.025 46.604 115.457 47.636 116.153 48.284C116.849 48.908 117.845 49.22 119.141 49.22C119.837 49.22 120.461 49.136 121.013 48.968C121.565 48.8 122.177 48.572 122.849 48.284C123.185 48.14 123.509 48.02 123.821 47.924C124.133 47.804 124.409 47.744 124.649 47.744ZM118.457 38.636C117.425 38.636 116.597 38.972 115.973 39.644C115.349 40.292 114.977 41.24 114.857 42.488H121.805C121.733 41.216 121.409 40.256 120.833 39.608C120.281 38.96 119.489 38.636 118.457 38.636ZM133.476 53.216C132.684 53.216 132.024 53 131.496 52.568C130.992 52.136 130.74 51.5 130.74 50.66V29.996C130.74 29.156 130.992 28.52 131.496 28.088C132.024 27.656 132.684 27.44 133.476 27.44C134.244 27.44 134.88 27.656 135.384 28.088C135.912 28.52 136.176 29.156 136.176 29.996V50.66C136.176 51.5 135.912 52.136 135.384 52.568C134.88 53 134.244 53.216 133.476 53.216ZM144.154 53.216C143.362 53.216 142.702 53 142.174 52.568C141.67 52.136 141.418 51.5 141.418 50.66V29.996C141.418 29.156 141.67 28.52 142.174 28.088C142.702 27.656 143.362 27.44 144.154 27.44C144.922 27.44 145.558 27.656 146.062 28.088C146.59 28.52 146.854 29.156 146.854 29.996V50.66C146.854 51.5 146.59 52.136 146.062 52.568C145.558 53 144.922 53.216 144.154 53.216ZM154.831 53.216C154.039 53.216 153.379 53 152.851 52.568C152.347 52.136 152.095 51.5 152.095 50.66V37.52C152.095 36.68 152.359 36.044 152.887 35.612C153.415 35.18 154.063 34.964 154.831 34.964C155.599 34.964 156.235 35.18 156.739 35.612C157.267 36.044 157.531 36.68 157.531 37.52V50.66C157.531 51.5 157.267 52.136 156.739 52.568C156.235 53 155.599 53.216 154.831 53.216ZM154.831 32.084C153.871 32.084 153.115 31.844 152.563 31.364C152.011 30.86 151.735 30.188 151.735 29.348C151.735 28.508 152.011 27.848 152.563 27.368C153.115 26.888 153.871 26.648 154.831 26.648C155.767 26.648 156.512 26.9 157.064 27.404C157.64 27.884 157.928 28.532 157.928 29.348C157.928 30.188 157.652 30.86 157.1 31.364C156.548 31.844 155.791 32.084 154.831 32.084ZM169.469 53.288C168.005 53.288 166.733 53.168 165.653 52.928C164.573 52.688 163.625 52.304 162.809 51.776C162.449 51.56 162.173 51.272 161.981 50.912C161.789 50.552 161.693 50.144 161.693 49.688C161.693 49.136 161.849 48.68 162.161 48.32C162.473 47.936 162.857 47.744 163.313 47.744C163.625 47.744 163.937 47.804 164.249 47.924C164.561 48.02 164.885 48.14 165.221 48.284C165.893 48.596 166.553 48.848 167.201 49.04C167.849 49.208 168.653 49.292 169.613 49.292C170.453 49.292 171.101 49.16 171.557 48.896C172.037 48.632 172.277 48.272 172.277 47.816C172.277 47.48 172.169 47.216 171.953 47.024C171.761 46.808 171.389 46.616 170.837 46.448C170.285 46.28 169.409 46.076 168.209 45.836C166.073 45.428 164.537 44.816 163.601 44C162.665 43.184 162.197 42.044 162.197 40.58C162.197 39.5 162.521 38.528 163.169 37.664C163.841 36.8 164.753 36.128 165.905 35.648C167.057 35.144 168.353 34.892 169.793 34.892C170.825 34.892 171.833 35.024 172.817 35.288C173.801 35.552 174.677 35.924 175.445 36.404C176.189 36.86 176.561 37.532 176.561 38.42C176.561 38.996 176.405 39.476 176.093 39.86C175.781 40.244 175.397 40.436 174.941 40.436C174.389 40.436 173.729 40.22 172.961 39.788C172.361 39.476 171.809 39.248 171.305 39.104C170.825 38.936 170.249 38.852 169.577 38.852C168.833 38.852 168.245 38.996 167.813 39.284C167.381 39.548 167.165 39.92 167.165 40.4C167.165 40.904 167.417 41.288 167.921 41.552C168.425 41.816 169.397 42.08 170.837 42.344C172.445 42.656 173.705 43.04 174.617 43.496C175.529 43.928 176.189 44.48 176.597 45.152C177.005 45.824 177.209 46.676 177.209 47.708C177.209 49.412 176.501 50.768 175.085 51.776C173.693 52.784 171.821 53.288 169.469 53.288ZM188.092 53.288C186.628 53.288 185.356 53.168 184.276 52.928C183.196 52.688 182.248 52.304 181.432 51.776C181.072 51.56 180.796 51.272 180.604 50.912C180.412 50.552 180.316 50.144 180.316 49.688C180.316 49.136 180.472 48.68 180.784 48.32C181.096 47.936 181.48 47.744 181.936 47.744C182.248 47.744 182.56 47.804 182.872 47.924C183.184 48.02 183.508 48.14 183.844 48.284C184.516 48.596 185.176 48.848 185.824 49.04C186.472 49.208 187.276 49.292 188.236 49.292C189.076 49.292 189.724 49.16 190.18 48.896C190.66 48.632 190.9 48.272 190.9 47.816C190.9 47.48 190.792 47.216 190.576 47.024C190.384 46.808 190.012 46.616 189.46 46.448C188.908 46.28 188.032 46.076 186.832 45.836C184.696 45.428 183.16 44.816 182.224 44C181.288 43.184 180.82 42.044 180.82 40.58C180.82 39.5 181.144 38.528 181.792 37.664C182.464 36.8 183.376 36.128 184.528 35.648C185.68 35.144 186.976 34.892 188.416 34.892C189.448 34.892 190.456 35.024 191.44 35.288C192.424 35.552 193.3 35.924 194.068 36.404C194.812 36.86 195.184 37.532 195.184 38.42C195.184 38.996 195.028 39.476 194.716 39.86C194.404 40.244 194.02 40.436 193.564 40.436C193.012 40.436 192.352 40.22 191.584 39.788C190.984 39.476 190.432 39.248 189.928 39.104C189.448 38.936 188.872 38.852 188.2 38.852C187.456 38.852 186.868 38.996 186.436 39.284C186.004 39.548 185.788 39.92 185.788 40.4C185.788 40.904 186.04 41.288 186.544 41.552C187.048 41.816 188.02 42.08 189.46 42.344C191.068 42.656 192.328 43.04 193.24 43.496C194.152 43.928 194.812 44.48 195.22 45.152C195.628 45.824 195.832 46.676 195.832 47.708C195.832 49.412 195.124 50.768 193.708 51.776C192.316 52.784 190.444 53.288 188.092 53.288ZM202.755 53.216C201.963 53.216 201.303 53 200.775 52.568C200.271 52.136 200.019 51.5 200.019 50.66V37.52C200.019 36.68 200.283 36.044 200.811 35.612C201.339 35.18 201.987 34.964 202.755 34.964C203.523 34.964 204.159 35.18 204.663 35.612C205.191 36.044 205.455 36.68 205.455 37.52V50.66C205.455 51.5 205.191 52.136 204.663 52.568C204.159 53 203.523 53.216 202.755 53.216ZM202.755 32.084C201.795 32.084 201.039 31.844 200.487 31.364C199.935 30.86 199.659 30.188 199.659 29.348C199.659 28.508 199.935 27.848 200.487 27.368C201.039 26.888 201.795 26.648 202.755 26.648C203.691 26.648 204.435 26.9 204.987 27.404C205.563 27.884 205.851 28.532 205.851 29.348C205.851 30.188 205.575 30.86 205.023 31.364C204.471 31.844 203.715 32.084 202.755 32.084ZM232.477 34.892C234.397 34.892 235.873 35.48 236.905 36.656C237.937 37.808 238.453 39.704 238.453 42.344V50.66C238.453 51.5 238.201 52.136 237.697 52.568C237.193 53 236.545 53.216 235.753 53.216C234.985 53.216 234.337 53 233.809 52.568C233.281 52.136 233.017 51.5 233.017 50.66V42.272C233.017 41.12 232.813 40.316 232.405 39.86C232.021 39.38 231.421 39.14 230.605 39.14C229.597 39.14 228.793 39.488 228.193 40.184C227.593 40.88 227.293 41.852 227.293 43.1V50.66C227.293 51.5 227.041 52.136 226.537 52.568C226.033 53 225.385 53.216 224.593 53.216C223.825 53.216 223.177 53 222.649 52.568C222.121 52.136 221.857 51.5 221.857 50.66V42.272C221.857 41.12 221.653 40.316 221.245 39.86C220.861 39.38 220.261 39.14 219.445 39.14C218.437 39.14 217.633 39.488 217.033 40.184C216.433 40.88 216.133 41.852 216.133 43.1V50.66C216.133 51.5 215.869 52.136 215.341 52.568C214.837 53 214.201 53.216 213.433 53.216C212.665 53.216 212.017 53 211.489 52.568C210.961 52.136 210.697 51.5 210.697 50.66V37.448C210.697 36.656 210.961 36.044 211.489 35.612C212.041 35.18 212.701 34.964 213.469 34.964C214.189 34.964 214.789 35.18 215.269 35.612C215.749 36.02 215.989 36.596 215.989 37.34V37.7C216.565 36.788 217.309 36.092 218.221 35.612C219.157 35.132 220.213 34.892 221.389 34.892C222.661 34.892 223.729 35.156 224.593 35.684C225.481 36.188 226.165 37.016 226.645 38.168C227.197 37.16 227.977 36.368 228.985 35.792C230.017 35.192 231.181 34.892 232.477 34.892ZM252.124 53.288C250.252 53.288 248.608 52.916 247.192 52.172C245.776 51.404 244.684 50.336 243.916 48.968C243.148 47.576 242.764 45.944 242.764 44.072C242.764 42.2 243.148 40.58 243.916 39.212C244.684 37.82 245.776 36.752 247.192 36.008C248.608 35.264 250.252 34.892 252.124 34.892C253.996 34.892 255.64 35.264 257.056 36.008C258.472 36.752 259.564 37.82 260.332 39.212C261.1 40.58 261.484 42.2 261.484 44.072C261.484 45.944 261.1 47.576 260.332 48.968C259.564 50.336 258.472 51.404 257.056 52.172C255.64 52.916 253.996 53.288 252.124 53.288ZM252.124 49.148C254.764 49.148 256.084 47.456 256.084 44.072C256.084 42.368 255.736 41.096 255.04 40.256C254.368 39.416 253.396 38.996 252.124 38.996C249.484 38.996 248.164 40.688 248.164 44.072C248.164 47.456 249.484 49.148 252.124 49.148Z" fill="white"/>
</svg>
