<svg width="235" height="55" viewBox="0 0 235 55" fill="none" xmlns="http://www.w3.org/2000/svg">
<path d="M27.9032 41.0581L26.9107 39.0388L27.9032 41.0581ZM27.0966 41.0581L26.1042 43.0774L27.0966 41.0581ZM41.2916 20.625C41.2916 25.8476 38.4745 30.1014 35.1019 33.3197C31.7389 36.5287 28.0582 38.4749 26.9107 39.0388L28.8956 43.0774C30.2355 42.4189 34.3741 40.2343 38.2085 36.5753C42.0332 32.9256 45.7916 27.5741 45.7916 20.625H41.2916ZM27.4999 6.83337C35.1168 6.83337 41.2916 13.0081 41.2916 20.625H45.7916C45.7916 10.5228 37.6021 2.33337 27.4999 2.33337V6.83337ZM13.7083 20.625C13.7083 13.0081 19.883 6.83337 27.4999 6.83337V2.33337C17.3977 2.33337 9.20825 10.5228 9.20825 20.625H13.7083ZM28.0891 39.0388C26.9416 38.4749 23.2609 36.5287 19.898 33.3197C16.5253 30.1014 13.7083 25.8476 13.7083 20.625H9.20825C9.20825 27.5741 12.9667 32.9256 16.7914 36.5753C20.6258 40.2343 24.7643 42.4189 26.1042 43.0774L28.0891 39.0388ZM26.9107 39.0388C27.281 38.8569 27.7189 38.8569 28.0891 39.0388L26.1042 43.0774C26.9857 43.5107 28.0141 43.5107 28.8956 43.0774L26.9107 39.0388ZM32.1249 20.625C32.1249 23.1794 30.0542 25.25 27.4999 25.25V29.75C32.5395 29.75 36.6249 25.6646 36.6249 20.625H32.1249ZM27.4999 16C30.0542 16 32.1249 18.0707 32.1249 20.625H36.6249C36.6249 15.5854 32.5395 11.5 27.4999 11.5V16ZM22.8749 20.625C22.8749 18.0707 24.9456 16 27.4999 16V11.5C22.4603 11.5 18.3749 15.5854 18.3749 20.625H22.8749ZM27.4999 25.25C24.9456 25.25 22.8749 23.1794 22.8749 20.625H18.3749C18.3749 25.6646 22.4603 29.75 27.4999 29.75V25.25Z" fill="white"/>
<path d="M45.3618 40.1041C47.172 41.1493 48.125 42.3348 48.125 43.5416C48.125 44.7484 47.172 45.934 45.3618 46.9791C43.5516 48.0243 40.9479 48.8921 37.8125 49.4956C34.6771 50.099 31.1204 50.4166 27.5 50.4166C23.8796 50.4166 20.3229 50.099 17.1875 49.4956C14.0521 48.8921 11.4484 48.0243 9.63823 46.9791C7.828 45.934 6.875 44.7484 6.875 43.5416C6.875 42.3348 7.828 41.1493 9.63823 40.1041" stroke="white" stroke-width="4.5" stroke-linecap="round"/>
<path d="M73.828 25.86C75.292 26.292 76.42 27.048 77.212 28.128C78.028 29.184 78.436 30.492 78.436 32.052C78.436 34.188 77.644 35.88 76.06 37.128C74.5 38.376 72.34 39 69.58 39H60.148C59.308 39 58.66 38.772 58.204 38.316C57.748 37.86 57.52 37.212 57.52 36.372V16.248C57.52 15.408 57.748 14.76 58.204 14.304C58.66 13.848 59.308 13.62 60.148 13.62H69.22C71.86 13.62 73.948 14.208 75.484 15.384C77.044 16.56 77.824 18.168 77.824 20.208C77.824 21.528 77.464 22.692 76.744 23.7C76.048 24.684 75.076 25.404 73.828 25.86ZM62.992 23.952H68.284C69.724 23.952 70.78 23.712 71.452 23.232C72.148 22.728 72.496 21.972 72.496 20.964C72.496 19.908 72.148 19.14 71.452 18.66C70.78 18.156 69.724 17.904 68.284 17.904H62.992V23.952ZM68.932 34.716C70.42 34.716 71.5 34.464 72.172 33.96C72.844 33.456 73.18 32.64 73.18 31.512C73.18 30.384 72.844 29.556 72.172 29.028C71.5 28.5 70.42 28.236 68.932 28.236H62.992V34.716H68.932ZM97.1723 33.744C97.6523 33.744 98.0363 33.936 98.3243 34.32C98.6363 34.704 98.7923 35.196 98.7923 35.796C98.7923 36.204 98.6723 36.588 98.4323 36.948C98.1923 37.284 97.8563 37.572 97.4243 37.812C96.6083 38.244 95.6603 38.604 94.5803 38.892C93.5003 39.156 92.5043 39.288 91.5923 39.288C89.6723 39.288 87.9923 38.916 86.5523 38.172C85.1363 37.428 84.0443 36.372 83.2763 35.004C82.5083 33.612 82.1243 31.98 82.1243 30.108C82.1243 28.308 82.4963 26.712 83.2403 25.32C83.9843 23.928 85.0163 22.848 86.3363 22.08C87.6563 21.288 89.1563 20.892 90.8363 20.892C92.4443 20.892 93.8483 21.252 95.0483 21.972C96.2723 22.668 97.2203 23.676 97.8923 24.996C98.5643 26.292 98.9003 27.816 98.9003 29.568C98.9003 30.096 98.7683 30.504 98.5043 30.792C98.2643 31.056 97.9163 31.188 97.4603 31.188H87.3803C87.5483 32.604 87.9803 33.636 88.6763 34.284C89.3723 34.908 90.3683 35.22 91.6643 35.22C92.3603 35.22 92.9843 35.136 93.5363 34.968C94.0883 34.8 94.7003 34.572 95.3723 34.284C95.7083 34.14 96.0323 34.02 96.3443 33.924C96.6563 33.804 96.9323 33.744 97.1723 33.744ZM90.9803 24.636C89.9483 24.636 89.1203 24.972 88.4963 25.644C87.8723 26.292 87.5003 27.24 87.3803 28.488H94.3283C94.2563 27.216 93.9323 26.256 93.3563 25.608C92.8043 24.96 92.0123 24.636 90.9803 24.636ZM106 39.216C105.208 39.216 104.548 39 104.02 38.568C103.516 38.136 103.264 37.5 103.264 36.66V15.996C103.264 15.156 103.516 14.52 104.02 14.088C104.548 13.656 105.208 13.44 106 13.44C106.768 13.44 107.404 13.656 107.908 14.088C108.436 14.52 108.7 15.156 108.7 15.996V36.66C108.7 37.5 108.436 38.136 107.908 38.568C107.404 39 106.768 39.216 106 39.216ZM116.677 39.216C115.885 39.216 115.225 39 114.697 38.568C114.193 38.136 113.941 37.5 113.941 36.66V15.996C113.941 15.156 114.193 14.52 114.697 14.088C115.225 13.656 115.885 13.44 116.677 13.44C117.445 13.44 118.081 13.656 118.585 14.088C119.113 14.52 119.377 15.156 119.377 15.996V36.66C119.377 37.5 119.113 38.136 118.585 38.568C118.081 39 117.445 39.216 116.677 39.216ZM127.355 39.216C126.563 39.216 125.903 39 125.375 38.568C124.871 38.136 124.619 37.5 124.619 36.66V23.52C124.619 22.68 124.883 22.044 125.411 21.612C125.939 21.18 126.587 20.964 127.355 20.964C128.123 20.964 128.759 21.18 129.263 21.612C129.791 22.044 130.055 22.68 130.055 23.52V36.66C130.055 37.5 129.791 38.136 129.263 38.568C128.759 39 128.123 39.216 127.355 39.216ZM127.355 18.084C126.395 18.084 125.639 17.844 125.087 17.364C124.535 16.86 124.259 16.188 124.259 15.348C124.259 14.508 124.535 13.848 125.087 13.368C125.639 12.888 126.395 12.648 127.355 12.648C128.291 12.648 129.035 12.9 129.587 13.404C130.163 13.884 130.451 14.532 130.451 15.348C130.451 16.188 130.175 16.86 129.623 17.364C129.071 17.844 128.315 18.084 127.355 18.084ZM141.993 39.288C140.529 39.288 139.257 39.168 138.177 38.928C137.097 38.688 136.149 38.304 135.333 37.776C134.973 37.56 134.697 37.272 134.505 36.912C134.313 36.552 134.217 36.144 134.217 35.688C134.217 35.136 134.373 34.68 134.685 34.32C134.997 33.936 135.381 33.744 135.837 33.744C136.149 33.744 136.461 33.804 136.773 33.924C137.085 34.02 137.409 34.14 137.745 34.284C138.417 34.596 139.077 34.848 139.725 35.04C140.373 35.208 141.177 35.292 142.137 35.292C142.977 35.292 143.625 35.16 144.081 34.896C144.561 34.632 144.801 34.272 144.801 33.816C144.801 33.48 144.693 33.216 144.477 33.024C144.285 32.808 143.913 32.616 143.361 32.448C142.809 32.28 141.933 32.076 140.733 31.836C138.597 31.428 137.061 30.816 136.125 30C135.189 29.184 134.721 28.044 134.721 26.58C134.721 25.5 135.045 24.528 135.693 23.664C136.365 22.8 137.277 22.128 138.429 21.648C139.581 21.144 140.877 20.892 142.317 20.892C143.349 20.892 144.357 21.024 145.341 21.288C146.325 21.552 147.201 21.924 147.969 22.404C148.713 22.86 149.085 23.532 149.085 24.42C149.085 24.996 148.929 25.476 148.617 25.86C148.305 26.244 147.921 26.436 147.465 26.436C146.913 26.436 146.253 26.22 145.485 25.788C144.885 25.476 144.333 25.248 143.829 25.104C143.349 24.936 142.773 24.852 142.101 24.852C141.357 24.852 140.769 24.996 140.337 25.284C139.905 25.548 139.689 25.92 139.689 26.4C139.689 26.904 139.941 27.288 140.445 27.552C140.949 27.816 141.921 28.08 143.361 28.344C144.969 28.656 146.229 29.04 147.141 29.496C148.053 29.928 148.713 30.48 149.121 31.152C149.529 31.824 149.733 32.676 149.733 33.708C149.733 35.412 149.025 36.768 147.609 37.776C146.217 38.784 144.345 39.288 141.993 39.288ZM160.616 39.288C159.152 39.288 157.88 39.168 156.8 38.928C155.72 38.688 154.772 38.304 153.956 37.776C153.596 37.56 153.32 37.272 153.128 36.912C152.936 36.552 152.84 36.144 152.84 35.688C152.84 35.136 152.996 34.68 153.308 34.32C153.62 33.936 154.004 33.744 154.46 33.744C154.772 33.744 155.084 33.804 155.396 33.924C155.708 34.02 156.032 34.14 156.368 34.284C157.04 34.596 157.7 34.848 158.348 35.04C158.996 35.208 159.8 35.292 160.76 35.292C161.6 35.292 162.248 35.16 162.704 34.896C163.184 34.632 163.424 34.272 163.424 33.816C163.424 33.48 163.316 33.216 163.1 33.024C162.908 32.808 162.536 32.616 161.984 32.448C161.432 32.28 160.556 32.076 159.356 31.836C157.22 31.428 155.684 30.816 154.748 30C153.812 29.184 153.344 28.044 153.344 26.58C153.344 25.5 153.668 24.528 154.316 23.664C154.988 22.8 155.9 22.128 157.052 21.648C158.204 21.144 159.5 20.892 160.94 20.892C161.972 20.892 162.98 21.024 163.964 21.288C164.948 21.552 165.824 21.924 166.592 22.404C167.336 22.86 167.708 23.532 167.708 24.42C167.708 24.996 167.552 25.476 167.24 25.86C166.928 26.244 166.544 26.436 166.088 26.436C165.536 26.436 164.876 26.22 164.108 25.788C163.508 25.476 162.956 25.248 162.452 25.104C161.972 24.936 161.396 24.852 160.724 24.852C159.98 24.852 159.392 24.996 158.96 25.284C158.528 25.548 158.312 25.92 158.312 26.4C158.312 26.904 158.564 27.288 159.068 27.552C159.572 27.816 160.544 28.08 161.984 28.344C163.592 28.656 164.852 29.04 165.764 29.496C166.676 29.928 167.336 30.48 167.744 31.152C168.152 31.824 168.356 32.676 168.356 33.708C168.356 35.412 167.648 36.768 166.232 37.776C164.84 38.784 162.968 39.288 160.616 39.288ZM175.279 39.216C174.487 39.216 173.827 39 173.299 38.568C172.795 38.136 172.543 37.5 172.543 36.66V23.52C172.543 22.68 172.807 22.044 173.335 21.612C173.863 21.18 174.511 20.964 175.279 20.964C176.047 20.964 176.683 21.18 177.187 21.612C177.715 22.044 177.979 22.68 177.979 23.52V36.66C177.979 37.5 177.715 38.136 177.187 38.568C176.683 39 176.047 39.216 175.279 39.216ZM175.279 18.084C174.319 18.084 173.563 17.844 173.011 17.364C172.459 16.86 172.183 16.188 172.183 15.348C172.183 14.508 172.459 13.848 173.011 13.368C173.563 12.888 174.319 12.648 175.279 12.648C176.215 12.648 176.959 12.9 177.511 13.404C178.087 13.884 178.375 14.532 178.375 15.348C178.375 16.188 178.099 16.86 177.547 17.364C176.995 17.844 176.239 18.084 175.279 18.084ZM205 20.892C206.92 20.892 208.396 21.48 209.428 22.656C210.46 23.808 210.976 25.704 210.976 28.344V36.66C210.976 37.5 210.724 38.136 210.22 38.568C209.716 39 209.068 39.216 208.276 39.216C207.508 39.216 206.86 39 206.332 38.568C205.804 38.136 205.54 37.5 205.54 36.66V28.272C205.54 27.12 205.336 26.316 204.928 25.86C204.544 25.38 203.944 25.14 203.128 25.14C202.12 25.14 201.316 25.488 200.716 26.184C200.116 26.88 199.816 27.852 199.816 29.1V36.66C199.816 37.5 199.564 38.136 199.06 38.568C198.556 39 197.908 39.216 197.116 39.216C196.348 39.216 195.7 39 195.172 38.568C194.644 38.136 194.38 37.5 194.38 36.66V28.272C194.38 27.12 194.176 26.316 193.768 25.86C193.384 25.38 192.784 25.14 191.968 25.14C190.96 25.14 190.156 25.488 189.556 26.184C188.956 26.88 188.656 27.852 188.656 29.1V36.66C188.656 37.5 188.392 38.136 187.864 38.568C187.36 39 186.724 39.216 185.956 39.216C185.188 39.216 184.54 39 184.012 38.568C183.484 38.136 183.22 37.5 183.22 36.66V23.448C183.22 22.656 183.484 22.044 184.012 21.612C184.564 21.18 185.224 20.964 185.992 20.964C186.712 20.964 187.312 21.18 187.792 21.612C188.272 22.02 188.512 22.596 188.512 23.34V23.7C189.088 22.788 189.832 22.092 190.744 21.612C191.68 21.132 192.736 20.892 193.912 20.892C195.184 20.892 196.252 21.156 197.116 21.684C198.004 22.188 198.688 23.016 199.168 24.168C199.72 23.16 200.5 22.368 201.508 21.792C202.54 21.192 203.704 20.892 205 20.892ZM224.648 39.288C222.776 39.288 221.132 38.916 219.716 38.172C218.3 37.404 217.208 36.336 216.44 34.968C215.672 33.576 215.288 31.944 215.288 30.072C215.288 28.2 215.672 26.58 216.44 25.212C217.208 23.82 218.3 22.752 219.716 22.008C221.132 21.264 222.776 20.892 224.648 20.892C226.52 20.892 228.164 21.264 229.58 22.008C230.996 22.752 232.088 23.82 232.856 25.212C233.624 26.58 234.008 28.2 234.008 30.072C234.008 31.944 233.624 33.576 232.856 34.968C232.088 36.336 230.996 37.404 229.58 38.172C228.164 38.916 226.52 39.288 224.648 39.288ZM224.648 35.148C227.288 35.148 228.608 33.456 228.608 30.072C228.608 28.368 228.26 27.096 227.564 26.256C226.892 25.416 225.92 24.996 224.648 24.996C222.008 24.996 220.688 26.688 220.688 30.072C220.688 33.456 222.008 35.148 224.648 35.148Z" fill="white"/>
</svg>
